<svg width="554" height="154" viewBox="0 0 554 154" fill="none" xmlns="http://www.w3.org/2000/svg">
<path d="M67.515 68.569C77.7677 70.3717 85.598 73.5827 91.006 78.202C96.414 82.7087 99.118 88.5673 99.118 95.778V106.932C99.118 115.72 95.738 122.874 88.978 128.395C82.218 133.916 73.2047 136.901 61.938 137.352V153.238H38.954V137.352C26.8987 137.239 17.4347 133.69 10.562 126.705C3.802 119.72 0.422 110.143 0.422 97.975H23.406C23.406 103.834 24.8707 108.453 27.8 111.833C30.842 115.1 35.0107 116.734 40.306 116.734H59.065C64.0223 116.734 68.022 115.72 71.064 113.692C74.2187 111.551 75.796 108.735 75.796 105.242V99.496C75.796 93.9753 71.74 90.539 63.628 89.187L32.532 83.948C22.392 82.258 14.6743 79.047 9.379 74.315C4.19633 69.4703 1.605 63.33 1.605 55.894V46.43C1.605 40.684 3.126 35.5577 6.168 31.051C9.32267 26.5443 13.7167 22.9953 19.35 20.404C24.9833 17.8127 31.518 16.4607 38.954 16.348V0.461992H61.938V16.348C72.5287 16.9113 80.9787 20.4603 87.288 26.995C93.71 33.5297 96.921 42.0923 96.921 52.683H73.937C73.937 47.951 72.6413 44.1767 70.05 41.36C67.4587 38.4307 64.0223 36.966 59.741 36.966H40.644C35.912 36.966 32.0813 37.98 29.152 40.008C26.3353 42.036 24.927 44.74 24.927 48.12V52.683C24.927 58.3163 28.814 61.809 36.588 63.161L67.515 68.569Z" fill="#01EB00"/>
<path d="M155.606 137.352C146.931 137.352 139.27 135.493 132.622 131.775C126.088 128.057 121.018 122.818 117.412 116.058C113.807 109.185 112.004 101.299 112.004 92.398V61.302C112.004 52.4013 113.807 44.571 117.412 37.811C121.13 30.9383 126.313 25.643 132.96 21.925C139.72 18.207 147.494 16.348 156.282 16.348H174.196C182.646 16.348 190.082 18.1507 196.504 21.756C202.926 25.3613 207.884 30.4313 211.376 36.966C214.982 43.388 216.784 50.8803 216.784 59.443H193.8C193.8 52.683 191.998 47.275 188.392 43.219C184.787 39.0503 180.055 36.966 174.196 36.966H156.282C149.973 36.966 144.903 39.332 141.072 44.064C137.242 48.6833 135.326 54.7673 135.326 62.316V91.384C135.326 98.9327 137.185 105.073 140.903 109.805C144.621 114.424 149.522 116.734 155.606 116.734H173.858C179.83 116.734 184.674 114.424 188.392 109.805C192.223 105.186 194.138 99.1017 194.138 91.553H217.122C217.122 100.679 215.32 108.735 211.714 115.72C208.109 122.593 203.039 127.944 196.504 131.775C189.97 135.493 182.421 137.352 173.858 137.352H155.606ZM297.726 108.453H253.448L242.97 136H218.634L264.94 17.7H275.418C282.741 17.7 287.699 21.08 290.29 27.84L332.371 136H308.035L297.726 108.453ZM259.701 88.849H291.473L275.756 46.261H275.587L259.701 88.849ZM375.988 137.352C363.594 137.352 353.905 133.916 346.92 127.043C339.934 120.058 336.442 110.368 336.442 97.975H359.426C359.426 103.834 360.89 108.453 363.82 111.833C366.862 115.1 371.03 116.734 376.326 116.734H395.085C400.042 116.734 404.042 115.72 407.084 113.692C410.238 111.551 411.816 108.735 411.816 105.242V99.496C411.816 93.9753 407.76 90.539 399.648 89.187L368.552 83.948C358.412 82.258 350.694 79.047 345.399 74.315C340.216 69.4703 337.625 63.33 337.625 55.894V46.43C337.625 40.4587 339.202 35.2197 342.357 30.713C345.624 26.0937 350.187 22.5447 356.046 20.066C362.017 17.5873 368.89 16.348 376.664 16.348H395.761C403.084 16.348 409.562 17.869 415.196 20.911C420.829 23.953 425.167 28.2343 428.209 33.755C431.363 39.163 432.941 45.4723 432.941 52.683H409.957C409.957 47.951 408.661 44.1767 406.07 41.36C403.478 38.4307 400.042 36.966 395.761 36.966H376.664C371.932 36.966 368.101 37.98 365.172 40.008C362.355 42.036 360.947 44.74 360.947 48.12V52.683C360.947 58.3163 364.834 61.809 372.608 63.161L403.535 68.569C413.787 70.3717 421.618 73.5827 427.026 78.202C432.434 82.7087 435.138 88.5673 435.138 95.778V106.932C435.138 112.903 433.448 118.199 430.068 122.818C426.8 127.437 422.181 131.043 416.21 133.634C410.238 136.113 403.309 137.352 395.423 137.352H375.988ZM451.404 17.7H474.726V66.541H529.82V17.7H553.142V136H529.82V86.821H474.726V136H451.404V17.7Z" fill="white"/>
</svg>
